# xmcd CD database generated by RipIT
#
# Track frame offsets:
# 150
# 23287
# 50983
# 85691
# 110220
# 135723
# 162643
# 193590
# 223554
# 254163
#
# Disc length: 4440 seconds
#
# Revision: 0
# Processed by: cddbd v1.5.2PL0 Copyright (c) Steve Scherf et al.
# Submitted via: RipIT 3.6.0 www.suwald.com/ripit/ripit.html on 2009-09-23 at 18:22
#
DISCID=9411560a
DTITLE=Hank Mobley - Music For Lovers
DYEAR=2006
DGENRE=Jazz
TTITLE0=The_Good_Life
TTITLE1=Darn_That_dream
TTITLE2=I_Should_Care
TTITLE3=I_See_Your_Face_Before_Me
TTITLE4=No_More_Goodbyes
TTITLE5=Deep_In_A_dream
TTITLE6=My_Sin
TTITLE7=Fin_De_L'Affaire
TTITLE8=Alone_Together
TTITLE9=data
EXTD=
EXTT0=
EXTT1=
EXTT2=
EXTT3=
EXTT4=
EXTT5=
EXTT6=
EXTT7=
EXTT8=
EXTT9=
PLAYORDER=
